<svg xmlns="http://www.w3.org/2000/svg" width="320" height="320">
  <g fill="none" stroke="rgba(255,255,255,0.09)" stroke-width="1.4" stroke-linecap="round" stroke-linejoin="round">

    <!-- (0,0) center=(40,40): чат-пузырь с точками -->
    <rect x="20" y="27" width="40" height="26" rx="7"/>
    <path d="M26 53 l-7 9 l12-9"/>
    <circle cx="32" cy="40" r="2.2" stroke="none" fill="rgba(255,255,255,0.09)"/>
    <circle cx="40" cy="40" r="2.2" stroke="none" fill="rgba(255,255,255,0.09)"/>
    <circle cx="48" cy="40" r="2.2" stroke="none" fill="rgba(255,255,255,0.09)"/>

    <!-- (1,0) center=(120,40): нота -->
    <line x1="118" y1="23" x2="118" y2="45"/>
    <line x1="118" y1="23" x2="136" y2="18"/>
    <line x1="136" y1="18" x2="136" y2="40"/>
    <circle cx="115" cy="48" r="4.5"/>
    <circle cx="133" cy="43" r="4.5"/>

    <!-- (2,0) center=(200,40): звуковая волна -->
    <path d="M188 40 Q192 30 196 40 Q200 50 204 40 Q208 30 212 40"/>
    <line x1="184" y1="40" x2="216" y2="40" stroke-dasharray="2,18" stroke-width="1"/>

    <!-- (3,0) center=(280,40): звезда -->
    <polygon points="280,26 283,36 293,36 285,43 288,53 280,47 272,53 275,43 267,36 277,36"/>

    <!-- (0,1) center=(40,120): наушники -->
    <path d="M20 122 a20,20 0 0,1 40,0"/>
    <rect x="15" y="120" width="9" height="14" rx="4.5"/>
    <rect x="56" y="120" width="9" height="14" rx="4.5"/>

    <!-- (1,1) center=(120,120): кнопка воспроизведения -->
    <circle cx="120" cy="120" r="18"/>
    <polygon points="116,112 116,128 132,120"/>

    <!-- (2,1) center=(200,120): смайл-эмодзи -->
    <circle cx="200" cy="120" r="18"/>
    <circle cx="194" cy="115" r="2.5" stroke="none" fill="rgba(255,255,255,0.09)"/>
    <circle cx="206" cy="115" r="2.5" stroke="none" fill="rgba(255,255,255,0.09)"/>
    <path d="M193 125 Q200 132 207 125"/>

    <!-- (3,1) center=(280,120): микрофон -->
    <rect x="274" y="104" width="12" height="22" rx="6"/>
    <path d="M268 122 Q268 136 280 136 Q292 136 292 122"/>
    <line x1="280" y1="136" x2="280" y2="144"/>
    <line x1="274" y1="144" x2="286" y2="144"/>

    <!-- (0,2) center=(40,200): звуковые полосы (эквалайзер) -->
    <rect x="24" y="193" width="6" height="14" rx="3"/>
    <rect x="33" y="187" width="6" height="26" rx="3"/>
    <rect x="42" y="195" width="6" height="10" rx="3"/>
    <rect x="51" y="190" width="6" height="20" rx="3"/>

    <!-- (1,2) center=(120,200): корона / VIP -->
    <polygon points="120,186 126,196 136,192 132,208 108,208 104,192 114,196"/>

    <!-- (2,2) center=(200,200): сердце -->
    <path d="M200 216 C180 203 175 189 185 183 C192 179 200 184 200 184 C200 184 208 179 215 183 C225 189 220 203 200 216z"/>

    <!-- (3,2) center=(280,200): стример / веб-камера -->
    <rect x="264" y="188" width="32" height="22" rx="5"/>
    <path d="M296 195 l12-6 l0 22 l-12-6"/>
    <circle cx="276" cy="216" r="3" stroke="none" fill="rgba(255,255,255,0.09)"/>
    <line x1="270" y1="216" x2="262" y2="216"/>
    <line x1="282" y1="216" x2="310" y2="216"/>

    <!-- (0,3) center=(40,280): лампочка / идея -->
    <path d="M40 263 a12,12 0 0,1 0,22"/>
    <path d="M40 263 a12,12 0 0,0 0,22"/>
    <line x1="34" y1="291" x2="46" y2="291"/>
    <line x1="36" y1="296" x2="44" y2="296"/>

    <!-- (1,3) center=(120,280): волна звука (TTS) -->
    <circle cx="120" cy="280" r="6"/>
    <path d="M108 268 Q96 280 108 292"/>
    <path d="M132 268 Q144 280 132 292"/>
    <path d="M103 263 Q86 280 103 297"/>
    <path d="M137 263 Q154 280 137 297"/>

    <!-- (2,3) center=(200,280): молния / flash -->
    <polygon points="204,263 196,280 202,280 196,297 212,277 205,277 212,263"/>

    <!-- (3,3) center=(280,280): сообщение чата / комментарий -->
    <rect x="258" y="264" width="44" height="30" rx="8"/>
    <line x1="266" y1="276" x2="294" y2="276"/>
    <line x1="266" y1="283" x2="288" y2="283"/>
    <path d="M264 294 l-6 8 l10-8"/>

  </g>
</svg>
