<svg xmlns="http://www.w3.org/2000/svg" width="200" height="200">
  <g fill="none" stroke="rgba(255,255,255,0.10)" stroke-width="1.4" stroke-linecap="round" stroke-linejoin="round">

    <!-- Cell (0,0) center=(50,50): chat bubble with dots -->
    <rect x="29" y="35" width="42" height="28" rx="8"/>
    <path d="M37 63 l-8 10 l13-10"/>
    <circle cx="41" cy="49" r="2.5" stroke="none" fill="rgba(255,255,255,0.10)"/>
    <circle cx="50" cy="49" r="2.5" stroke="none" fill="rgba(255,255,255,0.10)"/>
    <circle cx="59" cy="49" r="2.5" stroke="none" fill="rgba(255,255,255,0.10)"/>

    <!-- Cell (1,0) center=(150,50): music notes -->
    <line x1="148" y1="31" x2="148" y2="53"/>
    <line x1="148" y1="31" x2="166" y2="25"/>
    <line x1="166" y1="25" x2="166" y2="47"/>
    <circle cx="145" cy="56" r="5"/>
    <circle cx="163" cy="50" r="5"/>

    <!-- Cell (0,1) center=(50,150): headphones -->
    <path d="M28 153 a22,22 0 0,1 44,0"/>
    <rect x="23" y="151" width="10" height="16" rx="5"/>
    <rect x="67" y="151" width="10" height="16" rx="5"/>

    <!-- Cell (1,1) center=(150,150): play button circle -->
    <circle cx="150" cy="150" r="19"/>
    <polygon points="146,142 146,159 164,150"/>

  </g>
</svg>
